<?xml version="1.0" encoding="utf-8"?>
<svg version="1.1" id="logo" xmlns="http://www.w3.org/2000/svg" xmlns:xlink="http://www.w3.org/1999/xlink" x="0px" y="0px"
	 viewBox="0 0 357.5 73.4" style="fill: white" xml:space="preserve">
<g>
	<g>
		<path d="M143.9,72c-5.3-0.2-9.8-0.4-14.4-0.7c-0.2-0.5-0.5-1-0.7-1.4c1.6-1.4,3.1-2.9,4.8-4.2c6.1-4.7,6.1-5.4,1.9-11.6
			c-5.3-7.9-5.6-5.3,0.4-12.2c3-3.5,2.7-6.1-0.1-9.5c-5-5.8-5-6.1-0.2-11.8c3.2-3.8,3.7-7-0.2-10.6c-2.4-2.1-4.3-4.8-6.9-7.8
			c12.1,0,23-0.6,33.7,0.2c6.6,0.5,10,6,11.2,12.4c1.2,6.3-0.7,11.5-5.7,15.5c-1.6,1.3-3.4,2.5-5.3,3.9c12.6,6,17,15.4,12.4,26.2
			c-4.2,9.9-16.6,14.4-29.9,9.8c2.2-1.3,3.5-2.6,5-2.8c6.5-0.7,9.6-2.5,10.8-8.9c0.8-4.4,0.9-9.4-0.4-13.7c-2-6.8-7.8-8.4-14.5-7.4
			c-0.2-0.4-0.4-0.8-0.7-1.2c1.4-1,2.6-2.7,4.1-3c7-1.4,8.9-3.2,10.2-10.2c1.4-7.7-1.2-13.7-7.1-16.3c-6.1-2.8-9.6-0.6-9.6,5.8
			c0,15.5-0.1,30.9,0,46.4C142.8,63,143.4,67.1,143.9,72z"/>
		<path d="M62.5,48.2c0.7-0.9,1.1-1.4,1.5-1.9c5.3-6.7,5.6-8.5,1.2-15.9c-2.4-4-3-7.2,1.9-9.5c3.8-1.8,4.6-5,4.6-9
			c0-9.9,2.2-11.8,12.2-11.9c13.6-0.1,24.5,9.2,28.2,24.3c3.2,13.3,1.9,25.9-5.8,37.7c-4.8,7.4-20.7,14.8-31.5,9.8
			c-1.4-0.6-3-2.3-3.2-3.7c-0.7-3.7,0.2-7.9-1.2-11.1C68.9,53.7,65.4,51.3,62.5,48.2z M98.1,34.8c-1.3-6.3-2.8-14.5-4.7-22.7
			C92.2,7.5,89.1,4.6,84,5c-4.8,0.4-6.6,4.1-7.6,8c-4.2,15.2-3.9,30.5-0.4,45.8c1,4.5,3.1,9,8.4,9.4c5.5,0.4,7.9-4.1,10-8.3
			c0.5-1,0.9-2.2,1-3.3C96.2,50.1,97,43.6,98.1,34.8z"/>
		<path d="M32.8,70.2c3.4-8.2,6.6-15.8,10-23.8c-2.4-0.6-4.1-1.6-5.5-1.3c-5.9,1-7.5-2-8-7.1c-0.3-2.6-1.3-5-2.1-7.7
			c-4.3,0.9-8.2,1.7-12.2,2.6c-0.2-1.3-0.6-2.3-0.5-3.2c1-7.4-1.3-13.8-5.9-19.4c-3-3.7-0.8-5.2,2.2-6.6c8.2-4.1,16.9-4,25.6-2.3
			c1.9,0.4,4,0.7,5.7,1.6c1.3,0.7,3,2.1,3.1,3.3c0.3,5.7,0.1,11.4-1,17.1c-2.6-3.6-4.8-7.5-7.8-10.7c-2.5-2.7-5.8-5-9-6.9
			c-3.6-2.1-7.4-2-10,2c-2.4,3.7-1.4,8.7,2.5,11.5c5.2,3.7,10.7,7.1,15.9,10.8c6.8,4.8,11.1,11.1,11.5,19.8
			c0.3,7.5-4.7,17-10.7,19.4C35.5,69.9,34.3,69.9,32.8,70.2z"/>
		<path d="M253.1,1.9c6.3,0,10.7,0,14.6,0c0,13.1,0,25.8,0,38.5c0,7.6,0.1,15.3,0.1,22.9c0,3,1.4,4.1,4.3,3.8c5-0.5,9.4-2,12.3-6.4
			c2.5-3.7,4.9-7.4,7.6-11.4c0,7.1,0.1,13.7-0.2,20.4c0,0.7-2.5,1.9-3.9,1.9c-10.9,0.2-21.9,0.1-32.8,0.1c-0.3-0.5-0.6-1-1-1.5
			c1.6-1.7,3.1-3.6,4.9-5.2c3.9-3.4,5.4-6.6,1.1-11.1c-3.1-3.3-4.3-7.1,0.1-11.1c3.5-3.1,4.1-6.6,0.1-10.5
			c-3.6-3.5-5.2-7.7-0.5-11.9c4.3-4,2.6-7.8-0.8-11.5C257.4,7.1,255.7,5,253.1,1.9z"/>
		<path d="M321.8,1.3c4.6,0,9.2-0.1,13.8,0.1c0.7,0,1.8,1.3,2.1,2.2c6.7,22.6,13.2,45.1,19.8,67.6c-4.3,0-9.4,0-15.6,0
			c2.3-4.4,3.9-8,5.9-11.3c1.6-2.7,1.3-4.6-1.5-6.1c-0.1-0.1-0.3-0.2-0.4-0.3c-7.3-3.8-9.1-9.3-5.2-16.7c2-3.9-1.1-5.4-3.6-7
			c-3.8-2.3-6.1-4.6-4.2-9.9c3.1-8.7,2.3-9.6-6.1-13.4c-1.9-0.9-3.8-2.1-5.7-3.1C321.3,2.7,321.6,2,321.8,1.3z"/>
		<path d="M241.2,71.2c-5.2,0-10.3,0-16.4,0c2.2-4.4,3.9-7.9,5.8-11.3c1.5-2.6,1.6-4.6-1.3-6.1c-0.1-0.1-0.3-0.2-0.4-0.3
			c-7.3-3.9-9.2-9.5-5.3-17c2-3.9-1.4-5.4-3.9-6.8c-4.1-2.4-5.7-4.9-3.9-9.9c3-8.6,2.3-9.4-6.3-13.3c-1.9-0.9-3.7-2-5.5-3.1
			c0.2-0.7,0.3-1.4,0.5-2.1c4.7,0,9.4-0.1,14.1,0.1c0.7,0,1.7,1.3,2,2.3c7,22.3,13.8,44.6,20.7,66.9
			C241.4,70.7,241.3,70.8,241.2,71.2z"/>
		<path d="M1.4,48.8c4.5,5.8,8,11.2,12.5,15.7c5.1,5.1,11.4,4.5,14.6-0.4c2.8-4.3,1.6-9.8-3.1-13c-5.6-3.9-11.5-7.3-16.9-11.4
			C-1.4,32.2-3,18.3,5.6,8.3c0.2,2.4,0.9,4,0.5,5.4C2.4,25.3,4.5,32,14.5,38.9c3.3,2.3,6.7,4.3,10.2,6.2c7.8,4.3,10.8,10.4,8.8,18.1
			c-1.9,7.1-8.3,11.1-17.3,10.1c-4.4-0.5-8.6-2.2-12.8-3.6c-0.8-0.3-1.8-1.7-1.9-2.6C1.3,61.2,1.4,55.3,1.4,48.8z"/>
		<path d="M316.3,14.2c1.4,4.3,3,8.5,4.1,12.8c0.4,1.6-0.3,3.5-0.8,5.2c-3.7,11.8-7.7,23.6-11.3,35.5c-0.9,3-1.9,4.1-5.1,3.6
			c-2.4-0.4-4.9-0.1-7-0.1C303,52.1,309.6,33.4,316.3,14.2z"/>
		<path d="M199,14.8c6.2,9.3,3.8,18.8-0.2,28.6c-3,7.5-5.2,15.4-7.3,23.2c-0.9,3.5-2,5.6-6.1,4.7c-2-0.4-4.3-0.1-6.2-0.1
			C185.9,52.1,192.5,33.3,199,14.8z"/>
		<path d="M247.4,71.3c0-17.3,0-34.3,0-51.2c0-4.7,0.2-9.3-0.3-13.9c-0.5-5,1.4-5.5,5.2-3.8c0,4.7,0,9.3,0,14
			c-0.1,15.5-0.3,31.1-0.5,46.6c0,1.1,0.4,2.3,0.6,3.4C253.2,70.8,252.8,71.2,247.4,71.3z"/>
		<path d="M126.8,71.3c-1,0.1-2.4,0.2-4.3,0.3c0-14,0.1-27.7,0-41.4c-0.1-8-0.6-15.9-0.8-23.9c0-2.1-1.3-5,2.7-5.1
			c3.7-0.1,3.3,2.4,3.3,4.8c-0.3,14.4-0.6,28.9-0.8,43.3C126.7,56.5,126.8,63.8,126.8,71.3z"/>
		<path d="M314.3,1.7c3.5-0.9,5.4-0.1,6.4,3.5c6.4,21.8,13,43.5,19.7,65.6c-2.8,1.1-4.7,1.1-5.8-2.5c-6.5-21.2-13.2-42.4-19.8-63.7
			C314.6,3.8,314.5,2.8,314.3,1.7z"/>
		<path d="M219.8,59.3c1.2,3.8,2.4,7.6,3.7,11.6c-3.1,1.2-4.8,0.9-5.9-2.7c-6.6-21.5-13.4-43-20.2-64.5c-0.2-0.6-0.2-1.3-0.2-2.1
			c3.3-0.7,5.5-0.2,6.5,3.4C209,23.1,214.4,41.2,219.8,59.3C219.8,59.3,219.8,59.3,219.8,59.3z"/>
		<path d="M70.7,5.4c-0.9,1.6-1.5,3.5-2.8,4.7c-14.5,13.5-14.7,39-0.4,52.7c1.4,1.3,1.8,3.7,1.9,6c-12.6-6.9-16.6-18.6-16.6-31.6
			c-0.1-13.3,2.8-25.8,16-32.8C69.4,4.8,70.1,5.1,70.7,5.4z"/>
		<path d="M330.4,52.2c-3,5.4-5.6,10-8.7,15.5c-2.8-5.5-5.2-10.3-7.9-15.5C319.4,52.2,324.4,52.2,330.4,52.2z"/>
		<path d="M204.6,67.8c-2.9-5.7-5.3-10.4-7.9-15.6c5.7,0,10.7,0,16.7,0C210.3,57.5,207.7,62.2,204.6,67.8z"/>
		<path d="M66.4,36.9c-1.3,2.7-2.6,5.4-3.9,8c-0.8-0.4-1.6-0.8-2.4-1.2c1.3-2.7,2.7-5.3,4-8C64.8,36.1,65.6,36.5,66.4,36.9z"/>
		<path d="M339,34.6c-0.8,3-1.6,6-2.4,8.9c-0.7-0.2-1.5-0.4-2.2-0.6c0.8-3,1.6-6,2.3-9C337.4,34.2,338.2,34.4,339,34.6z"/>
		<path d="M222,34.7c-0.9,2.9-1.7,5.9-2.6,8.8c-0.7-0.2-1.4-0.4-2.1-0.6c0.8-3,1.5-6,2.3-9C220.3,34.2,221.1,34.5,222,34.7z"/>
		<path d="M214.3,16.1c-2.3-1.8-4.6-3.7-6.9-5.5c0.6-0.7,1.1-1.4,1.7-2.1c2.3,1.8,4.7,3.6,7,5.5C215.5,14.7,214.9,15.4,214.3,16.1z"
			/>
		<path d="M326.4,8.4c2.2,1.8,4.5,3.6,6.7,5.4c-0.5,0.7-1,1.4-1.6,2c-2.4-1.7-4.7-3.5-7.1-5.2C325.1,10,325.7,9.2,326.4,8.4z"/>
		<path d="M136.3,15c-1.8,2.6-3.5,5.3-5.3,7.9c-0.7-0.5-1.4-0.9-2.1-1.4c1.8-2.6,3.5-5.3,5.3-7.9C134.9,14,135.6,14.5,136.3,15z"/>
		<path d="M62.3,18.6c2.1-1.9,4.1-3.9,6.2-5.8c0.6,0.6,1.2,1.2,1.8,1.8c-2,2-4.1,4-6.1,6C63.5,19.9,62.9,19.2,62.3,18.6z"/>
		<path d="M17.4,35.4c2.7-0.7,5.5-1.4,8.2-2.1c0.2,0.8,0.4,1.6,0.6,2.4c-2.7,0.7-5.4,1.5-8.2,2.2C17.9,37.2,17.6,36.3,17.4,35.4z"/>
		<path d="M34.9,56.4c0.4-3,0.8-6,1.2-9c0.9,0.1,1.7,0.3,2.6,0.4c-0.6,3-1.1,6-1.7,9C36.3,56.6,35.6,56.5,34.9,56.4z"/>
		<path d="M133.7,40.2c-1.3-2.6-2.6-5.1-4-7.7c0.7-0.4,1.3-0.8,2-1.1c1.5,2.4,2.9,4.8,4.4,7.2C135.4,39.1,134.6,39.7,133.7,40.2z"/>
		<path d="M343.8,58.3c-2.1-1.6-4.1-3.3-6.2-4.9c0.4-0.6,0.9-1.2,1.3-1.8c2.2,1.5,4.3,3,6.5,4.6C344.9,56.9,344.4,57.6,343.8,58.3z"
			/>
		<path d="M221.8,51.6c2.2,1.5,4.4,3,6.6,4.5c-0.5,0.7-0.9,1.4-1.4,2c-2.2-1.5-4.4-3.1-6.6-4.6C220.9,53,221.3,52.3,221.8,51.6z"/>
		<path d="M261.3,15c-1.5,2.3-2.9,4.5-4.4,6.8c-0.7-0.4-1.4-0.8-2-1.3c1.4-2.3,2.8-4.6,4.1-6.9C259.7,14.1,260.5,14.6,261.3,15z"/>
		<path d="M10.9,23.6c-1.5-2.2-3.1-4.5-4.6-6.7c0.6-0.5,1.3-0.9,1.9-1.4c1.6,2.2,3.1,4.4,4.7,6.6C12.2,22.6,11.6,23.1,10.9,23.6z"/>
		<path d="M128.6,62.9c2-1.5,3.9-3,5.9-4.5c0.5,0.6,0.9,1.2,1.4,1.7c-1.9,1.6-3.8,3.2-5.7,4.8C129.7,64.2,129.2,63.5,128.6,62.9z"/>
		<path d="M7.6,22.8c1.5,2.1,2.9,4.2,4.4,6.3c-0.6,0.4-1.2,0.9-1.8,1.3c-1.5-2-3.1-4-4.6-6C6.3,23.8,6.9,23.3,7.6,22.8z"/>
		<path d="M67.6,60.5c-1.4-1.9-2.9-3.8-4.3-5.6c0.5-0.4,1.1-0.9,1.6-1.3c1.6,1.8,3.1,3.6,4.7,5.4C68.9,59.5,68.2,60,67.6,60.5z"/>
		<path d="M258.7,39.3c-1.2-2.2-2.5-4.3-3.7-6.5c0.5-0.3,1.1-0.7,1.6-1c1.4,2.1,2.8,4.1,4.1,6.2C260.1,38.4,259.4,38.8,258.7,39.3z"
			/>
		<path d="M132.8,10.5c-1.1,2.2-2.3,4.4-3.4,6.6c-0.6-0.3-1.2-0.6-1.9-1c1.1-2.2,2.3-4.4,3.4-6.6C131.6,9.8,132.2,10.1,132.8,10.5z"
			/>
		<path d="M58,36.9c1.4-2.2,2.7-4.3,4.1-6.5c0.6,0.4,1.2,0.8,1.8,1.2c-1.4,2.1-2.8,4.3-4.2,6.4C59.2,37.6,58.6,37.2,58,36.9z"/>
		<path d="M218.1,31.2c-0.6,2.2-1.2,4.4-1.9,6.6c-0.6-0.2-1.2-0.3-1.9-0.5c0.6-2.3,1.1-4.7,1.7-7C216.8,30.6,217.5,30.9,218.1,31.2z
			"/>
		<path d="M21.6,40.3c2.1-0.6,4.1-1.1,6.2-1.7c0.2,0.7,0.4,1.3,0.6,2c-2,0.7-4,1.4-6,2.1C22.2,41.9,21.9,41.1,21.6,40.3z"/>
		<path d="M331.3,37.2c0.6-2.3,1.1-4.6,1.7-6.8c0.6,0.1,1.2,0.3,1.9,0.4c-0.5,2.3-0.9,4.6-1.4,6.9C332.8,37.5,332.1,37.4,331.3,37.2
			z"/>
		<path d="M260.8,60.3c-1.7,1.4-3.4,2.8-5.1,4.2c-0.4-0.5-0.9-1-1.3-1.6c1.7-1.5,3.4-2.9,5.1-4.4C259.9,59.2,260.4,59.7,260.8,60.3z
			"/>
		<path d="M129.6,37.5c1.1,1.9,2.2,3.8,3.2,5.7c-0.6,0.3-1.2,0.7-1.8,1c-1.1-1.9-2.1-3.8-3.2-5.8C128.5,38.2,129,37.8,129.6,37.5z"
			/>
		<path d="M213,20.7c-1.6-1.3-3.3-2.6-4.9-3.8c0.4-0.5,0.8-1.1,1.2-1.6c1.7,1.2,3.3,2.5,5,3.7C213.9,19.6,213.4,20.1,213,20.7z"/>
		<path d="M252.9,14.4c1.1-1.8,2.1-3.6,3.2-5.5c0.6,0.3,1.2,0.6,1.8,0.9c-0.9,1.9-1.8,3.7-2.7,5.6C254.4,15.1,253.7,14.8,252.9,14.4
			z"/>
		<path d="M342.7,63.8c-1.6-1.3-3.2-2.6-4.7-3.8c0.4-0.6,0.9-1.2,1.3-1.7c1.7,1.2,3.3,2.4,5,3.6C343.8,62.5,343.2,63.2,342.7,63.8z"
			/>
		<path d="M326.4,15.2c1.7,1.3,3.4,2.5,5.1,3.8c-0.4,0.6-0.9,1.2-1.3,1.8c-1.7-1.3-3.4-2.5-5.1-3.8
			C325.5,16.4,325.9,15.8,326.4,15.2z"/>
		<path d="M253,57.8c1.4-1.4,2.9-2.8,4.3-4.2c0.4,0.4,0.9,0.9,1.3,1.3c-1.4,1.5-2.8,3-4.2,4.4C254,58.9,253.5,58.4,253,57.8z"/>
		<path d="M254.8,37.1c1,1.9,2.1,3.7,3.1,5.6c-0.6,0.3-1.2,0.7-1.7,1c-1.1-1.9-2.2-3.7-3.3-5.6C253.5,37.8,254.2,37.5,254.8,37.1z"
			/>
		<path d="M133.6,55.1c-1.2,1.3-2.5,2.7-3.7,4c-0.4-0.4-0.9-0.8-1.3-1.2c1.2-1.4,2.4-2.8,3.6-4.2C132.6,54.2,133.1,54.6,133.6,55.1z
			"/>
		<path d="M219.8,59.3c3.2-0.8,6-0.7,6,4.4C223.8,62.2,221.8,60.8,219.8,59.3C219.8,59.3,219.8,59.3,219.8,59.3z"/>
		<path d="M76.2,36.4c6.5-5.5,10.9-5.6,17.2-0.5C87.9,40,82.4,39.3,76.2,36.4z"/>
		<path d="M77.9,46.2c5.3-3.3,10-3.2,14.8,0C87.9,50.9,83.2,50.9,77.9,46.2z"/>
		<path d="M92.9,24.6c-5,3.1-9.5,3.4-14.2,0.3C82.7,20.3,86.5,20.2,92.9,24.6z"/>
	</g>
</g>
</svg>
